<?xml version="1.0" encoding="UTF-8"?>
<svg width="36px" height="36px" viewBox="0 0 36 36" version="1.1" xmlns="http://www.w3.org/2000/svg" xmlns:xlink="http://www.w3.org/1999/xlink">
    <!-- Generator: Sketch 43.2 (39069) - http://www.bohemiancoding.com/sketch -->
    <title>Artboard</title>
    <desc>Created with Sketch.</desc>
    <defs></defs>
    <g id="Page-1" stroke="none" stroke-width="1" fill="none" fill-rule="evenodd">
        <g id="Artboard">
            <g id="skin" transform="translate(8.000000, 9.000000)">
                <rect id="Rectangle" fill="#C3A77B" x="0" y="6" width="1" height="6"></rect>
                <rect id="Rectangle-Copy" fill="#C3A77B" x="19" y="6" width="1" height="6"></rect>
                <rect id="Rectangle-2" fill="#E0C292" x="2" y="0" width="16" height="16"></rect>
            </g>
            <g id="hair" transform="translate(9.000000, 3.000000)">
                <rect id="Rectangle-3" fill="#3D2000" x="0" y="5" width="1" height="16"></rect>
                <rect id="Rectangle-4" fill="#3D2000" x="1" y="3" width="1" height="8"></rect>
                <rect id="Rectangle-4-Copy" fill="#3D2000" x="2" y="2" width="1" height="6"></rect>
                <rect id="Rectangle-4-Copy-2" fill="#3D2000" x="3" y="1" width="1" height="7"></rect>
                <rect id="Rectangle-4-Copy-3" fill="#3D2000" x="4" y="0" width="1" height="7"></rect>
                <rect id="Rectangle-4-Copy-4" fill="#3D2000" x="5" y="0" width="1" height="8"></rect>
                <rect id="Rectangle-4-Copy-5" fill="#3D2000" x="6" y="0" width="1" height="6"></rect>
                <rect id="Rectangle-4-Copy-6" fill="#3D2000" x="7" y="0" width="1" height="7"></rect>
                <rect id="Rectangle-4-Copy-7" fill="#3D2000" x="9" y="0" width="1" height="7"></rect>
                <rect id="Rectangle-4-Copy-8" fill="#3D2000" x="10" y="0" width="1" height="7"></rect>
                <rect id="Rectangle-4-Copy-10" fill="#3D2000" x="11" y="0" width="1" height="8"></rect>
                <rect id="Rectangle-4-Copy-12" fill="#3D2000" x="14" y="1" width="1" height="7"></rect>
                <rect id="Rectangle-4-Copy-13" fill="#3D2000" x="15" y="2" width="1" height="6"></rect>
                <rect id="Rectangle-4-Copy-14" fill="#3D2000" x="16" y="3" width="1" height="8"></rect>
                <rect id="Rectangle-4-Copy-15" fill="#3D2000" x="17" y="5" width="1" height="16"></rect>
                <rect id="Rectangle-7" fill="#3D2000" x="15" y="20" width="2" height="6"></rect>
                <rect id="Rectangle-8" fill="#3D2000" x="1" y="20" width="2" height="6"></rect>
                <rect id="Rectangle-9" fill="#3D2000" x="2" y="22" width="14" height="6"></rect>
                <rect id="Rectangle-10" fill="#3D2000" x="3" y="28" width="12" height="1"></rect>
                <rect id="Rectangle-11" fill="#3D2000" x="4" y="29" width="10" height="1"></rect>
                <rect id="Rectangle-6" fill="#3D2000" x="13" y="0" width="1" height="7"></rect>
                <rect id="Rectangle-4-Copy-11" fill="#3D2000" x="12" y="0" width="1" height="6"></rect>
                <rect id="Rectangle-4-Copy-9" fill="#3D2000" x="8" y="0" width="1" height="6"></rect>
                <rect id="Rectangle-5" fill="#3D2000" x="8" y="7" width="1" height="1"></rect>
                <rect id="Rectangle-25" fill="#4D2900" x="2" y="23" width="1" height="1"></rect>
                <rect id="Rectangle-25-Copy" fill="#4D2900" x="1" y="21" width="1" height="1"></rect>
                <rect id="Rectangle-25-Copy-2" fill="#4D2900" x="4" y="22" width="1" height="1"></rect>
                <rect id="Rectangle-25-Copy-3" fill="#4D2900" x="3" y="25" width="1" height="1"></rect>
                <rect id="Rectangle-25-Copy-4" fill="#4D2900" x="1" y="24" width="1" height="1"></rect>
                <rect id="Rectangle-25-Copy-5" fill="#4D2900" x="2" y="27" width="1" height="1"></rect>
                <rect id="Rectangle-25-Copy-6" fill="#4D2900" x="4" y="27" width="1" height="1"></rect>
                <rect id="Rectangle-25-Copy-7" fill="#4D2900" x="5" y="28" width="1" height="1"></rect>
                <rect id="Rectangle-25-Copy-8" fill="#4D2900" x="4" y="29" width="1" height="1"></rect>
                <rect id="Rectangle-25-Copy-9" fill="#4D2900" x="7" y="29" width="1" height="1"></rect>
                <rect id="Rectangle-25-Copy-10" fill="#4D2900" x="9" y="28" width="1" height="1"></rect>
                <rect id="Rectangle-25-Copy-11" fill="#4D2900" x="11" y="29" width="1" height="1"></rect>
                <rect id="Rectangle-25-Copy-12" fill="#4D2900" x="12" y="28" width="1" height="1"></rect>
                <rect id="Rectangle-25-Copy-13" fill="#4D2900" x="14" y="28" width="1" height="1"></rect>
                <rect id="Rectangle-25-Copy-14" fill="#4D2900" x="13" y="26" width="1" height="1"></rect>
                <rect id="Rectangle-25-Copy-29" fill="#4D2900" x="15" y="26" width="1" height="1"></rect>
                <rect id="Rectangle-25-Copy-15" fill="#4D2900" x="15" y="27" width="1" height="1"></rect>
                <rect id="Rectangle-25-Copy-16" fill="#4D2900" x="13" y="25" width="1" height="1"></rect>
                <rect id="Rectangle-25-Copy-17" fill="#4D2900" x="15" y="24" width="1" height="1"></rect>
                <rect id="Rectangle-25-Copy-27" fill="#4D2900" x="14" y="23" width="1" height="1"></rect>
                <rect id="Rectangle-25-Copy-28" fill="#4D2900" x="14" y="23" width="1" height="1"></rect>
                <rect id="Rectangle-25-Copy-18" fill="#4D2900" x="13" y="22" width="1" height="1"></rect>
                <rect id="Rectangle-25-Copy-19" fill="#4D2900" x="10" y="22" width="1" height="1"></rect>
                <rect id="Rectangle-25-Copy-20" fill="#4D2900" x="7" y="22" width="1" height="1"></rect>
                <rect id="Rectangle-25-Copy-21" fill="#4D2900" x="8" y="22" width="1" height="1"></rect>
                <rect id="Rectangle-25-Copy-22" fill="#4D2900" x="15" y="21" width="1" height="1"></rect>
                <rect id="Rectangle-25-Copy-23" fill="#4D2900" x="16" y="23" width="1" height="1"></rect>
                <rect id="Rectangle-25-Copy-24" fill="#4D2900" x="17" y="20" width="1" height="1"></rect>
                <rect id="Rectangle-25-Copy-25" fill="#4D2900" x="2" y="20" width="1" height="1"></rect>
                <rect id="Rectangle-25-Copy-26" fill="#4D2900" x="0" y="19" width="1" height="1"></rect>
                <rect id="Rectangle-26" fill="#281500" x="5" y="2" width="1" height="1"></rect>
                <rect id="Rectangle-26-Copy" fill="#281500" x="1" y="8" width="1" height="1"></rect>
                <rect id="Rectangle-26-Copy-11" fill="#281500" x="0" y="7" width="1" height="1"></rect>
                <rect id="Rectangle-26-Copy-11" fill="#281500" x="3" y="6" width="1" height="1"></rect>
                <rect id="Rectangle-26-Copy-11" fill="#281500" x="10" y="3" width="1" height="1"></rect>
                <rect id="Rectangle-26-Copy-11" fill="#281500" x="15" y="2" width="1" height="1"></rect>
                <rect id="Rectangle-26-Copy-2" fill="#281500" x="3" y="2" width="1" height="1"></rect>
                <rect id="Rectangle-26-Copy-3" fill="#281500" x="5" y="5" width="1" height="1"></rect>
                <rect id="Rectangle-26-Copy-4" fill="#281500" x="6" y="1" width="1" height="1"></rect>
                <rect id="Rectangle-26-Copy-5" fill="#281500" x="8" y="3" width="1" height="1"></rect>
                <rect id="Rectangle-26-Copy-7" fill="#281500" x="12" y="4" width="1" height="1"></rect>
                <rect id="Rectangle-26-Copy-8" fill="#281500" x="14" y="2" width="1" height="1"></rect>
                <rect id="Rectangle-26-Copy-13" fill="#281500" x="13" y="1" width="1" height="1"></rect>
                <rect id="Rectangle-26-Copy-9" fill="#281500" x="16" y="9" width="1" height="1"></rect>
                <rect id="Rectangle-26-Copy-10" fill="#281500" x="10" y="1" width="1" height="1"></rect>
                <rect id="Rectangle-26-Copy-10" fill="#281500" x="11" y="0" width="1" height="1"></rect>
                <rect id="Rectangle-26-Copy-11" fill="#281500" x="17" y="11" width="1" height="1"></rect>
                <rect id="Rectangle-26-Copy-11" fill="#281500" x="13" y="0" width="1" height="1"></rect>
                <rect id="Rectangle-26-Copy-11" fill="#281500" x="16" y="5" width="1" height="1"></rect>
                <rect id="Rectangle-26-Copy-11" fill="#281500" x="15" y="6" width="1" height="1"></rect>
                <rect id="Rectangle-26-Copy-11" fill="#281500" x="11" y="5" width="1" height="1"></rect>
                <rect id="Rectangle-26-Copy-11" fill="#281500" x="10" y="6" width="1" height="1"></rect>
                <rect id="Rectangle-26-Copy-11" fill="#281500" x="8" y="5" width="1" height="1"></rect>
                <rect id="Rectangle-26-Copy-11" fill="#281500" x="8" y="0" width="1" height="1"></rect>
                <rect id="Rectangle-26-Copy-11" fill="#281500" x="1" y="5" width="1" height="1"></rect>
                <rect id="Rectangle-26-Copy-11" fill="#281500" x="2" y="2" width="1" height="1"></rect>
                <rect id="Rectangle-26-Copy-11" fill="#281500" x="5" y="3" width="1" height="1"></rect>
                <rect id="Rectangle-26-Copy-11" fill="#281500" x="3" y="4" width="1" height="1"></rect>
                <rect id="Rectangle-26-Copy-11" fill="#281500" x="5" y="0" width="1" height="1"></rect>
                <rect id="Rectangle-26-Copy-12" fill="#281500" x="14" y="4" width="1" height="1"></rect>
                <rect id="Rectangle-26-Copy-6" fill="#281500" x="8" y="2" width="1" height="1"></rect>
            </g>
            <g id="mouth" transform="translate(14.000000, 26.000000)">
                <rect id="Rectangle-12" fill="#FFFFFF" x="0" y="0" width="8" height="3"></rect>
                <rect id="Rectangle-13" fill="#D08669" x="0" y="2" width="1" height="1"></rect>
                <rect id="Rectangle-13-Copy" fill="#D08669" x="7" y="2" width="1" height="1"></rect>
                <rect id="Rectangle-14" fill="#E0C292" x="0" y="3" width="8" height="2"></rect>
                <rect id="Rectangle-13-Copy-2" fill="#D08669" x="1" y="3" width="6" height="1"></rect>
            </g>
            <g id="brows" transform="translate(11.000000, 15.000000)" fill="#3D2000">
                <rect id="Rectangle-15" x="0" y="0" width="5" height="1"></rect>
                <rect id="Rectangle-16" x="9" y="0" width="5" height="1"></rect>
            </g>
            <g id="eyes" transform="translate(12.000000, 17.000000)">
                <g id="eye">
                    <rect id="Rectangle-17" fill="#FFFFFF" x="0" y="0" width="4" height="2"></rect>
                    <rect id="Rectangle-19" fill="#C3A77B" x="1" y="2" width="2" height="1"></rect>
                    <rect id="Rectangle-18" fill="#4D2900" x="1" y="1" width="2" height="1"></rect>
                </g>
                <g id="eye" transform="translate(8.000000, 0.000000)">
                    <rect id="Rectangle-17" fill="#FFFFFF" x="0" y="0" width="4" height="2"></rect>
                    <rect id="Rectangle-19" fill="#C3A77B" x="1" y="2" width="2" height="1"></rect>
                    <rect id="Rectangle-18" fill="#4D2900" x="1" y="1" width="2" height="1"></rect>
                </g>
            </g>
            <g id="nose" transform="translate(16.000000, 18.000000)">
                <rect id="Rectangle-24" fill="#C3A77B" x="4" y="3" width="1" height="1"></rect>
                <rect id="Rectangle-20" fill="#AC9167" x="2" y="0" width="1" height="1"></rect>
                <rect id="Rectangle-21" fill="#AC9167" x="3" y="1" width="1" height="3"></rect>
                <rect id="Rectangle-22" fill="#AC9167" x="4" y="4" width="1" height="2"></rect>
                <rect id="Rectangle-23" fill="#AC9167" x="0" y="3" width="1" height="1"></rect>
            </g>
        </g>
    </g>
</svg>