<?xml version="1.0" encoding="UTF-8"?>
<svg width="80px" height="80px" viewBox="0 0 80 80" version="1.1" xmlns="http://www.w3.org/2000/svg" xmlns:xlink="http://www.w3.org/1999/xlink">
    <!-- Generator: Sketch 43.2 (39069) - http://www.bohemiancoding.com/sketch -->
    <title>email</title>
    <desc>Created with Sketch.</desc>
    <defs>
        <path d="M73.7368108,63 L6.70661764,63 L34.7806656,43.34234 L38.4566503,45.9162922 C38.9372151,46.3821834 39.5760607,46.6254184 40.2217142,46.6189617 C40.8673677,46.6254184 41.5062133,46.3821834 41.9867781,45.9162922 L45.6627628,43.34234 L73.7368108,63 Z M77,60.4018114 L49.1496564,40.9007908 L77,21.3997703 L77,60.4018114 Z M3,60.7123033 L3,21.0892784 L31.293772,40.9007908 L3,60.7123033 Z M74.5662892,17 L40.2217142,41.0483303 L5.87713919,17 L74.5662892,17 Z" id="path-1"></path>
    </defs>
    <g id="Page-1" stroke="none" stroke-width="1" fill="none" fill-rule="evenodd" stroke-linejoin="round">
        <g id="email">
            <g id="Combined-Shape">
                <use fill="#000000" fill-rule="evenodd" xlink:href="#path-1"></use>
                <path stroke="#000000" stroke-width="1" d="M73.7368108,63.5 L75.3226082,63.5 L74.023599,62.590424 L45.949551,42.932764 L45.6627628,42.7319527 L45.3759746,42.932764 L41.6999899,45.5067162 C41.260439,45.9240581 40.7517076,46.1242368 40.2267141,46.1189867 C39.6917208,46.1242368 39.1829894,45.9240581 38.8046805,45.5573006 L35.0674538,42.932764 L34.7806656,42.7319527 L34.4938774,42.932764 L6.41982943,62.590424 L5.12082024,63.5 L6.70661764,63.5 L73.7368108,63.5 Z M76.7132118,60.8113874 L77.5,61.3623024 L77.5,60.4018114 L77.5,21.3997703 L77.5,20.4392792 L76.7132118,20.9901943 L48.8628682,40.4912148 L48.277933,40.9007908 L48.8628682,41.3103668 L76.7132118,60.8113874 Z M2.5,60.7123033 L2.5,61.6727943 L3.28678822,61.1218793 L31.5805602,41.3103668 L32.1654954,40.9007908 L31.5805602,40.4912148 L3.28678822,20.6797024 L2.5,20.1287873 L2.5,21.0892784 L2.5,60.7123033 Z M74.8530774,17.409576 L76.1520866,16.5 L74.5662892,16.5 L5.87713919,16.5 L4.29134179,16.5 L5.59035098,17.409576 L39.934926,41.4579063 L40.2217142,41.6587176 L40.5085024,41.4579063 L74.8530774,17.409576 Z"></path>
            </g>
        </g>
    </g>
</svg>